<svg width="1500" height="1500" viewBox="0 0 1500 1500" fill="none" xmlns="http://www.w3.org/2000/svg">
<g clip-path="url(#clip0_31_267)">
<path d="M648.834 835.321C659.306 851.968 674.163 864.471 691.295 871.054C694.96 872.545 698.812 873.376 702.707 873.514C706.505 873.511 710.233 872.361 713.504 870.183C716.589 868.222 719.544 865.813 722.999 864.732C724.775 864.208 726.629 864.113 728.439 864.454C730.249 864.795 731.976 865.563 733.504 866.709C737.379 869.452 740.148 873.602 742.731 877.766C745.599 882.39 748.514 887.243 752.991 890.05C753.533 890.39 753.034 891.32 752.492 890.98C744.702 886.096 741.818 875.738 735.188 869.441C732.094 866.503 728.196 864.598 724.107 865.547C720.532 866.378 717.483 868.859 714.373 870.875C711.21 873.052 707.623 874.323 703.924 874.576C700.035 874.661 696.162 874 692.47 872.62C684.114 869.663 676.223 865.242 669.085 859.521C660.906 853.042 653.771 845.033 647.987 835.84C647.629 835.271 648.479 834.756 648.834 835.321V835.321Z" fill="white" id="id_245"></path>
<path d="M685.668 869.3C684.298 872.392 681.998 874.834 679.18 876.19C676.361 877.546 673.207 877.728 670.28 876.703C669.688 876.493 669.949 875.447 670.542 875.657C673.265 876.617 676.204 876.447 678.826 875.178C681.449 873.909 683.583 871.625 684.843 868.738C685.118 868.111 685.941 868.677 685.668 869.3V869.3Z" fill="white" id="id_246"></path>
<path d="M712.055 871.411C710.125 864.69 706.02 859.036 700.558 855.576C700.017 855.234 700.517 854.305 701.057 854.647C706.735 858.258 710.996 864.152 712.991 871.151C713.18 871.818 712.244 872.074 712.055 871.411Z" fill="white" id="id_247"></path>
<path d="M661.996 852.289C662.747 851.217 663.25 849.952 663.46 848.607C663.671 847.262 663.581 845.879 663.2 844.582C663.003 843.918 663.94 843.663 664.136 844.323C664.551 845.757 664.648 847.285 664.419 848.771C664.189 850.258 663.641 851.659 662.82 852.851C662.752 852.971 662.645 853.057 662.522 853.091C662.399 853.125 662.269 853.105 662.159 853.035C662.05 852.96 661.972 852.839 661.941 852.7C661.911 852.56 661.93 852.412 661.996 852.289V852.289Z" fill="white" id="id_248"></path>
<path d="M711.942 828.204C709.198 829.743 706.059 830.131 703.084 829.3C700.109 828.469 697.494 826.473 695.704 823.667C695.343 823.098 696.111 822.44 696.471 823.01C698.134 825.625 700.571 827.485 703.342 828.252C706.113 829.02 709.037 828.645 711.584 827.195C712.138 826.881 712.493 827.892 711.942 828.204Z" fill="white" id="id_249"></path>
<path d="M731.885 847.804C733.933 841.128 733.674 833.827 731.16 827.356C730.91 826.715 731.805 826.312 732.054 826.952C734.66 833.691 734.915 841.29 732.771 848.232C732.566 848.894 731.682 848.462 731.885 847.804Z" fill="white" id="id_250"></path>
<path d="M702.124 798.548C703.296 798.202 704.373 797.534 705.259 796.602C706.145 795.671 706.812 794.506 707.201 793.213C707.398 792.548 708.282 792.981 708.086 793.641C707.652 795.068 706.914 796.353 705.937 797.385C704.96 798.416 703.774 799.162 702.482 799.557C702.363 799.606 702.232 799.602 702.116 799.545C702 799.489 701.907 799.385 701.856 799.254C701.809 799.121 701.811 798.971 701.861 798.839C701.912 798.707 702.006 798.602 702.124 798.548H702.124Z" fill="white" id="id_251"></path>
<path d="M1345.1 829.343C1336.52 847.315 1323.14 861.783 1306.85 870.691C1303.38 872.679 1299.65 874.036 1295.79 874.714C1292.02 875.237 1288.2 874.612 1284.72 872.905C1281.44 871.386 1278.25 869.405 1274.7 868.811C1272.88 868.537 1271.03 868.7 1269.27 869.289C1267.51 869.878 1265.88 870.88 1264.49 872.229C1260.94 875.489 1258.65 879.991 1256.54 884.481C1254.19 889.467 1251.83 894.688 1247.69 898.094C1247.19 898.507 1247.79 899.36 1248.29 898.948C1255.49 893.022 1257.22 882.342 1263.12 875.174C1265.87 871.829 1269.53 869.398 1273.69 869.774C1277.33 870.102 1280.62 872.142 1283.93 873.712C1287.31 875.434 1291 876.197 1294.7 875.936C1298.57 875.482 1302.34 874.288 1305.86 872.407C1313.83 868.314 1321.18 862.833 1327.64 856.166C1335.05 848.602 1341.26 839.665 1345.99 829.74C1346.29 829.126 1345.39 828.732 1345.1 829.343Z" fill="white" id="id_252"></path>
<path d="M1312.25 868.17C1313.94 871.049 1316.49 873.153 1319.44 874.108C1322.38 875.063 1325.53 874.806 1328.32 873.384C1328.89 873.094 1328.51 872.092 1327.95 872.382C1325.35 873.712 1322.42 873.951 1319.68 873.055C1316.93 872.159 1314.57 870.188 1313 867.498C1312.66 866.913 1311.91 867.589 1312.25 868.17Z" fill="white" id="id_253"></path>
<path d="M1286.29 873.92C1287.47 866.983 1290.93 860.803 1295.97 856.613C1296.47 856.198 1295.87 855.345 1295.38 855.759C1290.13 860.131 1286.55 866.57 1285.33 873.792C1285.22 874.481 1286.17 874.605 1286.29 873.92H1286.29Z" fill="white" id="id_254"></path>
<path d="M1333.88 848.006C1333.02 847.047 1332.38 845.861 1332.03 844.555C1331.67 843.249 1331.61 841.864 1331.85 840.525C1331.97 839.838 1331.01 839.715 1330.89 840.397C1330.64 841.878 1330.71 843.407 1331.1 844.851C1331.48 846.295 1332.18 847.609 1333.13 848.679C1333.21 848.788 1333.32 848.858 1333.45 848.875C1333.57 848.892 1333.7 848.854 1333.8 848.769C1333.9 848.68 1333.97 848.549 1333.98 848.406C1334 848.263 1333.96 848.12 1333.88 848.006H1333.88Z" fill="white" id="id_255"></path>
<path d="M1287.19 777.721C1289.94 797.895 1286.98 818.532 1278.73 836.701C1277.02 840.648 1274.76 844.265 1272.05 847.42C1269.32 850.398 1265.93 852.496 1262.24 853.497C1258.81 854.509 1255.2 855.097 1252.05 857.03C1250.45 858.047 1249.06 859.433 1247.97 861.098C1246.88 862.763 1246.12 864.669 1245.73 866.691C1244.64 871.702 1245.21 876.855 1245.92 881.873C1246.71 887.444 1247.61 893.217 1246.13 898.746C1245.95 899.416 1246.88 899.692 1247.06 899.023C1249.64 889.404 1245.32 879.7 1246.2 869.975C1246.61 865.437 1248.24 861.011 1251.76 858.485C1254.84 856.277 1258.56 855.667 1262.04 854.677C1265.66 853.759 1269.02 851.858 1271.83 849.138C1274.68 846.149 1277.05 842.635 1278.85 838.747C1283.03 830.068 1285.97 820.702 1287.57 810.992C1289.45 799.922 1289.63 788.571 1288.12 777.43C1288.02 776.74 1287.1 777.036 1287.19 777.721Z" fill="white" id="id_256"></path>
<path d="M1281.69 831.026C1284.58 832.173 1287.74 832.123 1290.6 830.886C1293.46 829.649 1295.84 827.305 1297.31 824.273C1297.61 823.658 1296.77 823.111 1296.48 823.727C1295.11 826.553 1292.9 828.736 1290.23 829.882C1287.56 831.028 1284.62 831.061 1281.94 829.975C1281.35 829.74 1281.11 830.793 1281.69 831.026Z" fill="white" id="id_257"></path>
<path d="M1264.04 853.243C1261.28 846.901 1260.74 839.619 1262.53 832.849C1262.7 832.179 1261.77 831.903 1261.59 832.573C1259.74 839.621 1260.32 847.198 1263.2 853.791C1263.48 854.419 1264.31 853.868 1264.04 853.243Z" fill="white" id="id_258"></path>
<path d="M1288.2 800.236C1287 800.055 1285.86 799.541 1284.88 798.74C1283.9 797.938 1283.11 796.875 1282.58 795.645C1282.31 795.013 1281.48 795.564 1281.75 796.192C1282.34 797.548 1283.21 798.722 1284.29 799.61C1285.37 800.498 1286.63 801.074 1287.96 801.287C1288.08 801.319 1288.21 801.297 1288.32 801.225C1288.43 801.153 1288.51 801.037 1288.54 800.9C1288.58 800.761 1288.56 800.613 1288.49 800.488C1288.43 800.364 1288.32 800.273 1288.2 800.236V800.236Z" fill="white" id="id_259"></path>
<path d="M1243.63 543.014H1231.37C1231.13 543.015 1230.9 543.124 1230.73 543.315C1230.56 543.506 1230.47 543.765 1230.47 544.036C1230.46 544.19 1230.5 544.342 1230.56 544.477C1230.64 544.65 1230.75 544.797 1230.89 544.9C1231.04 545.003 1231.2 545.058 1231.37 545.058H1243.63C1243.81 545.059 1243.97 545.005 1244.12 544.902C1244.27 544.799 1244.38 544.652 1244.46 544.477C1244.51 544.34 1244.54 544.188 1244.54 544.036C1244.54 543.902 1244.52 543.769 1244.47 543.645C1244.43 543.521 1244.36 543.408 1244.28 543.313C1244.19 543.218 1244.09 543.143 1243.98 543.091C1243.87 543.04 1243.75 543.014 1243.63 543.014Z" fill="white" id="id_260"></path>
<path d="M1243.63 546.854H1231.37C1231.13 546.854 1230.9 546.961 1230.73 547.153C1230.56 547.345 1230.47 547.605 1230.47 547.876C1230.47 548.147 1230.56 548.407 1230.73 548.599C1230.9 548.79 1231.13 548.898 1231.37 548.898H1243.63C1243.88 548.898 1244.11 548.79 1244.28 548.599C1244.45 548.407 1244.54 548.147 1244.54 547.876C1244.54 547.605 1244.45 547.345 1244.28 547.153C1244.11 546.961 1243.88 546.854 1243.63 546.854Z" fill="white" id="id_261"></path>
<path d="M736.221 540.715C737.77 540.715 739.025 539.299 739.025 537.552C739.025 535.805 737.77 534.389 736.221 534.389C734.671 534.389 733.416 535.805 733.416 537.552C733.416 539.299 734.671 540.715 736.221 540.715Z" fill="white" id="id_262"></path>
<path d="M746.867 540.715C748.417 540.715 749.672 539.299 749.672 537.552C749.672 535.805 748.417 534.389 746.867 534.389C745.318 534.389 744.062 535.805 744.062 537.552C744.062 539.299 745.318 540.715 746.867 540.715Z" fill="white" id="id_263"></path>
<path d="M757.514 540.715C759.064 540.715 760.319 539.299 760.319 537.552C760.319 535.805 759.064 534.389 757.514 534.389C755.965 534.389 754.709 535.805 754.709 537.552C754.709 539.299 755.965 540.715 757.514 540.715Z" fill="white" id="id_264"></path>
<path d="M915.61 676.297C917.159 676.297 918.415 674.881 918.415 673.134C918.415 671.387 917.159 669.971 915.61 669.971C914.061 669.971 912.805 671.387 912.805 673.134C912.805 674.881 914.061 676.297 915.61 676.297Z" fill="white" id="id_265"></path>
<path d="M926.257 676.297C927.806 676.297 929.062 674.881 929.062 673.134C929.062 671.387 927.806 669.971 926.257 669.971C924.707 669.971 923.452 671.387 923.452 673.134C923.452 674.881 924.707 676.297 926.257 676.297Z" fill="white" id="id_266"></path>
<path d="M936.904 676.297C938.453 676.297 939.709 674.881 939.709 673.134C939.709 671.387 938.453 669.971 936.904 669.971C935.354 669.971 934.099 671.387 934.099 673.134C934.099 674.881 935.354 676.297 936.904 676.297Z" fill="white" id="id_267"></path>
<g clip-path="url(#clip1_31_267)">
<path d="M1117.11 1224.8L1097.31 1224.8L1087.89 1148.47L1117.12 1148.47L1117.11 1224.8Z" fill="#FFB6B6" id="id_268"></path>
<path d="M1049.27 1224.35C1048.66 1225.39 1048.33 1228.74 1048.33 1229.95C1048.33 1233.66 1051.34 1236.66 1055.05 1236.66H1116.37C1118.91 1236.66 1120.96 1234.61 1120.96 1232.08V1229.53C1120.96 1229.53 1123.99 1221.86 1117.75 1212.41C1117.75 1212.41 1109.98 1219.81 1098.38 1208.22L1094.96 1202.03L1070.2 1220.12L1056.48 1221.81C1053.48 1222.18 1050.82 1221.75 1049.27 1224.35V1224.35Z" fill="#2F2E41" id="id_269"></path>
<path d="M1027.09 1224.8L1007.28 1224.8L997.865 1148.47L1027.09 1148.47L1027.09 1224.8Z" fill="#FFB6B6" id="id_270"></path>
<path d="M959.245 1224.35C958.628 1225.39 958.303 1228.74 958.303 1229.95C958.303 1233.66 961.312 1236.66 965.023 1236.66H1026.35C1028.88 1236.66 1030.93 1234.61 1030.93 1232.08V1229.53C1030.93 1229.53 1033.96 1221.86 1027.72 1212.41C1027.72 1212.41 1019.96 1219.81 1008.36 1208.22L1004.94 1202.03L980.177 1220.12L966.453 1221.81C963.451 1222.18 960.789 1221.75 959.245 1224.35V1224.35Z" fill="#2F2E41" id="id_271"></path>
<path d="M1148.89 748.266L1011.09 751.938L997.045 784.988L979.858 999.817L994.556 1188.94H1037.47V1010.44L1069.89 900.665L1082.75 1183.43L1127.04 1188.94L1145.22 994.308L1161.75 808.858L1148.89 748.266Z" fill="#2F2E41" id="id_272"></path>
<path d="M1099.93 502.223L1052.16 504.059L1046.65 526.092C1046.65 526.092 987.858 542.618 991.533 564.651C995.208 586.685 1013.58 684.001 1013.58 684.001C1013.58 684.001 993.37 746.429 1006.23 753.774C1019.09 761.118 1151.62 753.774 1151.62 753.774C1151.62 753.774 1162.4 726.232 1156.89 722.56C1151.38 718.887 1173.43 542.618 1169.75 538.945C1166.08 535.273 1105.45 516.912 1105.45 516.912L1099.93 502.223V502.223Z" fill="#7be0ca" id="id_273"></path>
<path d="M1193.64 685.837L1197.31 711.543L1156.89 803.35L1136.68 792.334L1158.73 706.035L1162.4 672.984L1193.64 685.837Z" fill="#FFB6B6" id="id_274"></path>
<path d="M1155.05 540.782C1155.05 540.782 1175.26 531.602 1189.96 564.652C1204.66 597.703 1200.99 669.312 1200.99 669.312C1200.99 669.312 1206.5 674.821 1202.82 678.493C1199.15 682.165 1192.17 673.524 1199.15 685.201C1202.82 691.346 1213.85 689.51 1202.82 691.346C1191.8 693.182 1195.66 688.05 1199.15 695.018C1200.99 698.69 1208.34 698.69 1200.99 700.527C1193.64 702.363 1156.66 699.211 1156.66 699.211C1156.66 699.211 1144.03 693.182 1151.38 689.51C1158.73 685.837 1162.4 685.115 1158.73 683.64C1155.05 682.165 1145.87 682.165 1151.38 676.657C1156.89 671.148 1160.57 671.148 1156.89 671.148C1153.22 671.148 1149.08 662.3 1149.08 662.3L1155.05 540.782V540.782Z" fill="#78e6ce" id="id_275"></path>
<path d="M1154.59 818.758C1159.06 805.365 1156.24 792.355 1148.29 789.699C1140.33 787.042 1130.25 795.745 1125.77 809.138C1121.3 822.53 1124.12 835.54 1132.07 838.197C1140.03 840.853 1150.11 832.15 1154.59 818.758Z" fill="#FFB6B6" id="id_276"></path>
<path d="M937.689 677.138L923.073 698.608L831.308 739.23L823.802 717.481L898.276 668.557L923.274 646.609L937.689 677.138Z" fill="#FFB6B6" id="id_277"></path>
<path d="M1006.97 543.973C1006.97 543.973 1028.1 550.797 1016.68 585.117C1005.26 619.436 954.261 669.877 954.261 669.877C954.261 669.877 954.62 677.658 949.429 677.898C944.238 678.137 944.903 667.05 942.191 680.38C940.763 687.395 950.147 693.461 940.763 687.395C931.379 681.329 937.694 680.138 935.572 687.634C934.454 691.585 939.885 696.534 933.216 692.942C926.547 689.35 901.348 662.121 901.348 662.121C901.348 662.121 896.081 649.163 903.987 651.398C911.894 653.633 915.096 655.573 913.375 652.009C911.654 648.445 904.866 642.26 912.653 641.901C920.439 641.542 923.155 644.016 920.439 641.542C917.724 639.068 920.634 629.745 920.634 629.745L1006.97 543.973V543.973Z" fill="#79e0ca" id="id_278"></path>
<path d="M819.219 749.066C831.557 742.184 838.244 730.671 834.155 723.35C830.066 716.03 816.751 715.674 804.413 722.555C792.076 729.437 785.389 740.95 789.478 748.271C793.566 755.591 806.882 755.947 819.219 749.066Z" fill="#FFB6B6" id="id_279"></path>
<path d="M1078.13 493.248C1102.5 493.248 1122.26 473.506 1122.26 449.152C1122.26 424.799 1102.5 405.057 1078.13 405.057C1053.76 405.057 1034.01 424.799 1034.01 449.152C1034.01 473.506 1053.76 493.248 1078.13 493.248Z" fill="#FFB6B6" id="id_280"></path>
<path d="M1042.89 413.684C1045.13 407.321 1051.36 403.46 1058.11 403.61C1058.4 403.616 1058.68 403.614 1058.97 403.602C1062.37 403.463 1065.63 402.303 1068.96 401.622C1075.18 400.353 1081.73 400.778 1087.72 402.839C1089.59 403.479 1091.45 404.285 1093.42 404.285C1095.39 404.285 1097.54 403.205 1098.02 401.295C1098.14 403.024 1098.25 404.754 1098.36 406.483C1099 405.083 1099.65 403.683 1100.29 402.284L1101.57 407.866L1105.69 403.201C1105.32 405.257 1106.52 407.329 1108.14 408.644C1109.77 409.959 1111.77 410.686 1113.7 411.505C1121.99 415.04 1129.79 421.299 1132.18 429.993C1133.69 435.485 1132.9 441.314 1132.1 446.954C1131.39 451.94 1130.62 457.098 1127.91 461.342C1126.17 464.062 1123.67 466.352 1122.61 469.402C1121.62 472.245 1121.99 475.499 1120.59 478.161C1119.18 480.835 1116.27 482.348 1113.42 483.364C1110.57 484.38 1107.55 485.099 1105.09 486.867C1102.64 488.635 1099.8 493.728 1094.45 493.454L1092.73 490.216C1090.95 488.771 1097.52 489.917 1097.59 487.631C1097.66 485.345 1089.69 483.932 1090.82 481.943C1092.55 478.892 1094.89 476.238 1096.84 473.323C1099.13 469.913 1100.92 465.93 1100.13 461.769C1099.83 460.151 1099.07 458.622 1097.91 457.446C1094.59 454.056 1090.87 455.546 1087.27 456.031C1084.78 456.365 1081.81 455.979 1080.52 453.83C1079.01 451.315 1080.69 448.116 1080.49 445.19C1080.27 442.09 1077.92 439.548 1075.36 437.781C1072.8 436.013 1069.9 434.726 1067.6 432.635C1065.3 430.545 1065.66 431.629 1066.67 428.688C1049.56 441.51 1052.09 419.371 1040.6 422.138C1041.15 419.268 1041.92 416.44 1042.89 413.684L1042.89 413.684Z" fill="#2F2E41" id="id_281"></path>
<path d="M833.054 1202.13C828.558 1204.48 824.059 1207.65 820.652 1213.27C820.01 1214.33 819.438 1215.49 818.902 1216.68C820.413 1205.93 823.427 1195.82 827.771 1187.4C829.374 1184.29 826.681 1179.74 825.069 1182.87V1182.87C818.182 1186.44 815.28 1194.8 814.173 1204.7C812.804 1201.15 811.121 1197.96 809.157 1195.29C808.355 1194.21 807.238 1193.98 806.454 1195.29C805.784 1196.42 805.647 1198.73 806.454 1199.83C803.492 1215.38 811.14 1220.2 813.781 1227.95C813.84 1229.66 813.903 1231.36 813.962 1233.01C814.02 1234.66 814.644 1235.63 815.37 1235.97C815.722 1236.88 816.356 1237.52 817.002 1237.52C818.085 1237.52 818.856 1236.05 818.914 1234.31C819.126 1227.94 819.778 1216.89 823.561 1217.47C831.619 1218.72 831.991 1212.21 834.07 1208.31C835.705 1205.25 835.412 1200.9 833.054 1202.13H833.054Z" fill="#E6E6E6" id="id_282"></path>
<path d="M1238.27 1202.13C1242.76 1204.48 1247.26 1207.65 1250.67 1213.27C1251.31 1214.33 1251.88 1215.49 1252.42 1216.68C1250.91 1205.93 1247.89 1195.82 1243.55 1187.4C1241.95 1184.29 1244.64 1179.74 1246.25 1182.87V1182.87C1253.14 1186.44 1256.04 1194.8 1257.15 1204.7C1258.52 1201.15 1260.2 1197.96 1262.16 1195.29C1262.96 1194.21 1264.08 1193.98 1264.87 1195.29C1265.54 1196.42 1265.67 1198.73 1264.87 1199.83C1267.83 1215.38 1260.18 1220.2 1257.54 1227.95C1257.48 1229.66 1257.42 1231.36 1257.36 1233.01C1257.3 1234.66 1256.68 1235.63 1255.95 1235.97C1255.6 1236.88 1254.96 1237.52 1254.32 1237.52C1253.23 1237.52 1252.46 1236.05 1252.41 1234.31C1252.19 1227.94 1251.54 1216.89 1247.76 1217.47C1239.7 1218.72 1239.33 1212.21 1237.25 1208.31C1235.61 1205.25 1235.91 1200.9 1238.27 1202.13V1202.13Z" fill="#E6E6E6" id="id_283"></path>
<path d="M494.521 1236.46C494.521 1237.87 495.654 1239 497.066 1239H1359.46C1360.87 1239 1362 1237.87 1362 1236.46C1362 1235.05 1360.87 1233.91 1359.46 1233.91H497.066C495.654 1233.91 494.521 1235.05 494.521 1236.46Z" fill="#CCCCCC" id="id_284"></path>
<path d="M602.983 1239H225.719C179.718 1239 142.293 1201.6 142.293 1155.63V345.373C142.293 299.401 179.718 262 225.719 262H602.983C648.983 262 686.408 299.401 686.408 345.373V1155.63C686.408 1201.6 648.983 1239 602.983 1239V1239Z" fill="#3F3D56" id="id_285"></path>
<path d="M686.409 560.037C684.462 560.037 682.879 561.619 682.879 563.564V676.431C682.879 678.376 684.462 679.958 686.409 679.958C688.355 679.958 689.938 678.376 689.938 676.431V563.564C689.938 561.619 688.355 560.037 686.409 560.037Z" fill="#3F3D56" id="id_286"></path>
<path d="M678.468 345.374V1155.61C678.468 1195.63 647.304 1228.36 607.9 1230.9H607.882C607.3 1230.93 606.717 1230.97 606.117 1230.99C605.076 1231.04 604.035 1231.06 602.976 1231.06C602.976 1231.06 599.094 1230.77 592 1230.25C584.835 1229.72 574.406 1228.92 561.401 1227.88C557.501 1227.58 553.389 1227.25 549.048 1226.9C540.402 1226.19 530.908 1225.41 520.726 1224.53C516.667 1224.2 512.467 1223.83 508.179 1223.46C486.262 1221.57 461.716 1219.36 435.828 1216.86C431.452 1216.45 427.04 1216.03 422.593 1215.59C421.429 1215.47 420.246 1215.36 419.064 1215.24C400.606 1213.42 150.235 1165.07 150.235 1155.61V345.374C150.235 303.701 184.028 269.93 225.727 269.93H270.796C277.996 269.93 283.784 275.538 284.402 282.715C284.455 283.192 284.508 283.668 284.596 284.144C285.902 291.357 292.519 296.383 299.86 296.383H528.843C536.184 296.383 542.801 291.357 544.107 284.144C544.195 283.668 544.248 283.192 544.301 282.715C544.919 275.538 550.707 269.93 557.907 269.93H602.976C644.675 269.93 678.468 303.701 678.468 345.374H678.468Z" fill="white" id="id_287"></path>
<path d="M140.529 475.389C138.583 475.389 137 476.971 137 478.916V507.132C137 509.078 138.583 510.659 140.529 510.659C142.476 510.659 144.059 509.078 144.059 507.132V478.916C144.059 476.971 142.476 475.389 140.529 475.389Z" fill="#3F3D56" id="id_288"></path>
<path d="M140.529 560.037C138.583 560.037 137 561.619 137 563.564V618.234C137 620.179 138.583 621.761 140.529 621.761C142.476 621.761 144.059 620.179 144.059 618.234V563.564C144.059 561.619 142.476 560.037 140.529 560.037Z" fill="#3F3D56" id="id_289"></path>
<path d="M140.529 637.633C138.583 637.633 137 639.215 137 641.16V695.83C137 697.775 138.583 699.357 140.529 699.357C142.476 699.357 144.059 697.775 144.059 695.83V641.16C144.059 639.215 142.476 637.633 140.529 637.633Z" fill="#3F3D56" id="id_290"></path>
<path d="M269.568 282.281H202.073C201.707 282.281 201.41 282.578 201.41 282.944V290.436C201.41 290.802 201.707 291.099 202.073 291.099H269.568C269.934 291.099 270.231 290.802 270.231 290.436V282.944C270.231 282.578 269.934 282.281 269.568 282.281Z" fill="#E6E6E6" id="id_291"></path>
<path d="M569.059 291.099C572.957 291.099 576.118 287.94 576.118 284.044C576.118 280.148 572.957 276.99 569.059 276.99C565.161 276.99 562 280.148 562 284.044C562 287.94 565.161 291.099 569.059 291.099Z" fill="#E6E6E6" id="id_292"></path>
<path d="M588.47 291.099C592.369 291.099 595.529 287.94 595.529 284.044C595.529 280.148 592.369 276.99 588.47 276.99C584.572 276.99 581.412 280.148 581.412 284.044C581.412 287.94 584.572 291.099 588.47 291.099Z" fill="#E6E6E6" id="id_293"></path>
<path d="M607.881 291.099C611.78 291.099 614.94 287.94 614.94 284.044C614.94 280.148 611.78 276.99 607.881 276.99C603.983 276.99 600.823 280.148 600.823 284.044C600.823 287.94 603.983 291.099 607.881 291.099Z" fill="#E6E6E6" id="id_294"></path>
<path d="M659.384 1192.84L675.671 1188.74L664.548 1113.59L640.511 1119.64L659.384 1192.84Z" fill="#FFB6B6" id="id_295"></path>
<path d="M724.256 1211.2C725.013 1213.94 723.688 1216.69 721.294 1217.35L689.175 1226.24C689.175 1226.24 682.493 1214.42 668.091 1212.53L672.237 1230.93L655.667 1235.52L649.578 1205.76C649.578 1205.76 640.814 1191.37 647.805 1180.83C654.796 1170.29 647.648 1173.47 647.648 1173.47L646.258 1154.39L672.112 1150.4L680.163 1178.73L700.122 1203.52L720.384 1207.39C722.187 1207.73 723.709 1209.23 724.256 1211.2H724.256Z" fill="#2F2E41" id="id_296"></path>
<path d="M503.384 1179.78L519.087 1185.74L553.013 1117.75L529.84 1108.96L503.384 1179.78Z" fill="#FFB6B6" id="id_297"></path>
<path d="M546.057 1231.95C545.113 1234.62 542.449 1236.12 540.108 1235.3L508.676 1224.21C508.676 1224.21 509.97 1210.7 499.247 1200.9L492.102 1218.37L475.888 1212.65L487.941 1184.77C487.941 1184.77 489.002 1167.95 500.769 1163.31C512.536 1158.67 504.855 1157.19 504.855 1157.19L514.643 1140.75L538.128 1152.27L528.506 1180.1L530.667 1211.85L545.068 1226.61C546.35 1227.92 546.738 1230.02 546.056 1231.95L546.057 1231.95Z" fill="#2F2E41" id="id_298"></path>
<path d="M571.565 507.667H488.227C488.349 503.759 487.514 499.851 485.803 496.35C485.763 500.238 484.887 504.125 483.278 507.667H479.49C473.706 507.667 469.001 502.965 469.001 497.185V443.066C469.001 416.566 489.836 394.727 516.312 393.465C517.106 393.425 517.88 393.404 518.674 393.404C540.242 393.404 559.508 407.387 566.066 428.106C575.699 423.669 581.462 448.887 585.291 488.942C588.204 498.223 581.279 507.667 571.565 507.667V507.667Z" fill="#2F2E41" id="id_299"></path>
<path d="M735.1 817.077C739.231 826.865 737.527 836.929 731.295 839.556C725.062 842.184 716.661 836.379 712.53 826.591C710.722 822.307 710.031 817.969 710.35 814.226L693.366 772.533L713.113 764.984L727.76 806.887C730.665 809.272 733.291 812.793 735.1 817.077V817.077Z" fill="#FFB6B6" id="id_300"></path>
<path d="M552.502 489.348L512.667 497.675L518.777 515.993L506.558 656.093L526.924 701.206L651.156 691.03L620.607 629.97C620.607 629.97 632.827 579.088 616.534 568.911C600.241 558.734 573.765 507.852 573.765 507.852L552.502 489.348V489.348Z" fill="#79e8d0" id="id_301"></path>
<path d="M515.37 505.777L480.082 520.065L492.301 699.172L465.826 853.855L551.363 868.102C551.363 868.102 541.18 526.171 535.07 520.065C528.96 513.959 515.37 505.777 515.37 505.777V505.777Z" fill="#2F2E41" id="id_302"></path>
<path d="M584.483 528.12C584.483 528.12 607.445 513.601 619.851 524.351C632.256 535.101 727.768 794.956 727.768 794.956L702.006 806.143L642.924 682.342L584.483 528.12H584.483Z" fill="#2F2E41" id="id_303"></path>
<path d="M650.26 965.939L673.559 1144.9L640.973 1146.94C640.973 1146.94 624.029 1100.74 604.702 1046.31C600.588 1034.77 596.372 1022.87 592.197 1010.94C587.676 997.996 583.175 985.051 578.898 972.554C568.328 941.739 559.061 913.693 553.766 895.375C552.85 892.16 552.035 889.249 551.363 886.684C537.107 831.975 528.96 688.995 528.96 688.995L647.083 678.818L648.346 680.386L673.559 711.872L672.378 718.527L640.973 894.561L650.26 965.94L650.26 965.939Z" fill="#2F2E41" id="id_304"></path>
<path d="M640.973 894.56L650.26 965.939L608.49 1039.43L604.701 1046.31L547.188 1150.76L518.777 1134.67C518.777 1134.67 555.742 1049.77 578.898 972.553C581.464 964.066 583.847 955.66 585.985 947.478C592.278 923.522 581.973 879.804 586.006 867.755C599.63 827.09 644.028 745.738 664.639 708.879L672.378 718.526L640.973 894.56V894.56Z" fill="#2F2E41" id="id_305"></path>
<path d="M573.249 506.305L614.497 522.1L722.437 837.573L657.266 847.749L626.717 664.572L573.249 506.305Z" fill="#2F2E41" id="id_306"></path>
<path d="M470.12 846.831C469.07 857.402 462.762 865.43 456.031 864.763C449.3 864.095 444.694 854.984 445.744 844.413C446.204 839.786 447.671 835.646 449.74 832.51L454.751 787.773L475.708 790.571L468.544 834.375C469.955 837.857 470.58 842.204 470.12 846.831V846.831Z" fill="#FFB6B6" id="id_307"></path>
<path d="M494.338 520.064C494.338 520.064 467.862 513.958 459.716 528.206C451.569 542.453 447.496 819.255 447.496 819.255L475.511 821.29L490.265 684.924L494.338 520.064V520.064Z" fill="#2F2E41" id="id_308"></path>
<path d="M528.127 484.412C551.508 484.412 570.463 465.47 570.463 442.104C570.463 418.737 551.508 399.795 528.127 399.795C504.746 399.795 485.792 418.737 485.792 442.104C485.792 465.47 504.746 484.412 528.127 484.412Z" fill="#FFB6B6" id="id_309"></path>
<path d="M581.272 438.465C581.272 438.465 560.648 432.359 548.3 438.465C531.14 446.951 487.331 438.465 487.331 438.465V419.339C487.331 408.173 495.65 398.755 506.737 397.37L538.352 393.421C563.168 390.321 585.087 409.658 585.087 434.652V434.652C585.087 436.758 583.379 438.465 581.272 438.465V438.465Z" fill="#2F2E41" id="id_310"></path>
<path d="M536.209 507.667H488.227C488.349 503.759 487.514 499.851 485.804 496.35C485.763 500.238 484.887 504.125 483.278 507.667H481.221V422.184H517.88L536.209 507.667Z" fill="#2F2E41" id="id_311"></path>
<path d="M956.484 341.414C955.532 336.116 953.176 331.171 949.661 327.093C944.662 321.405 938.591 316.758 931.796 313.415C925 310.073 917.612 308.102 910.054 307.614C902.496 307.126 894.916 308.131 887.747 310.571C880.577 313.012 873.959 316.84 868.27 321.838L867.784 322.275C860.993 315.694 852.715 310.847 843.652 308.145C834.588 305.443 825.007 304.964 815.72 306.751C806.432 308.537 797.712 312.535 790.299 318.407C782.886 324.278 776.998 331.85 773.135 340.48C769.585 348.377 767.957 357.003 768.385 365.65C768.814 374.297 771.286 382.72 775.599 390.228C777.534 393.613 779.808 396.793 782.386 399.719C785.045 402.753 856.821 482.575 857.537 483.377C857.623 483.476 857.729 483.556 857.849 483.61C857.968 483.665 858.098 483.693 858.229 483.692C858.253 483.692 858.29 483.68 858.326 483.68C858.377 483.679 858.427 483.667 858.472 483.644C858.709 483.586 858.914 483.438 859.043 483.231L859.419 482.612L859.868 481.847L866.509 470.754C884.927 439.988 909.755 410.957 940.313 384.475C942.28 382.767 944.104 380.9 945.764 378.892C952.302 371.078 956.248 361.425 957.055 351.269C957.286 347.973 957.094 344.661 956.484 341.414Z" fill="#eb789a" id="id_312"></path>
<ellipse cx="1046.34" cy="453.758" rx="3.64222" ry="3.64099" fill="#2F2E41" id="id_313"></ellipse>
<ellipse cx="553.427" cy="452.546" rx="4.85629" ry="4.85466" fill="#2F2E41" id="id_314"></ellipse>
</g>
</g>
<defs>
<clipPath id="clip0_31_267">
<rect width="1500" height="1500" fill="white" id="id_315"></rect>
</clipPath>
<clipPath id="clip1_31_267">
<rect width="1225" height="977" fill="white" transform="translate(137 262)" id="id_316"></rect>
</clipPath>
</defs>
</svg>